<?xml version="1.0" encoding="UTF-8"?>
<svg id="Modalità_Isolamento" data-name="Modalità Isolamento" xmlns="http://www.w3.org/2000/svg" viewBox="0 0 1920 1080">
  <defs>
    <style>
      .cls-1 {
        fill: #fff;
      }
    </style>
  </defs>
  <path class="cls-1" d="M1047.18,714.03c72.31,37.79,133.58,13.54,138.86,23.52.75,1.42.68,4.96-.43,6.29-19.85,23.77-54.71,46.33-83.23,60.06-57.2,27.55-119.55,39.9-183.92,38.7-58.27-1.09-114.28-13.18-165.76-38.48-41.7-20.49-78.23-48.04-106.95-83.23-45.95-56.32-63.19-128.39-48.62-198.15,9.58-45.84,30.13-87.72,59.88-125.07,78.78-98.87,208.87-156.39,338.98-160.16,81.73-2.37,164.44,15.83,230.8,61.16,73.44,50.17,116.31,130.15,96.14,216.4-20.98,89.7-108.85,145.25-199.95,162.82-33.52,6.46-66.49,7.3-100.53,6.47-1.91-.05-4.44.59-5.05,1.71-4.07,7.44,22.64,24.23,29.78,27.96ZM911.14,640.91c-1.28-5.16-2.36-13.69,1.2-17.25,4.03-4.04,10.32-.08,14.92,1.17,84.88,23.08,183.34,9.85,254.9-40.21,22.52-15.76,41.37-33.89,55.53-56.81,24.48-39.65,29.32-86.76,11.47-129.81-25.53-61.57-89.1-97.89-155.78-111.38-113.51-22.96-236,9.51-323.16,80.99-42.79,35.09-77.72,83.92-91.62,135.93-11.76,43.98-10.05,89.09,7.55,130.96,27.73,65.95,84.69,113.41,154.77,137.36,56.11,19.18,115.49,22.7,173.64,10.25,7.9-1.69,51.33-11.8,51.06-18.03-.05-1.04-2.16-3.25-3.25-3.5-26.97-6.36-52.67-15.72-76.39-29.65-35.3-20.72-65.13-51.01-74.82-90.01Z"/>
</svg>