<?xml version="1.0" encoding="UTF-8"?>
<svg id="Livello_1" data-name="Livello 1" xmlns="http://www.w3.org/2000/svg" viewBox="0 0 1920 1080">
  <defs>
    <style>
      .cls-1 {
        letter-spacing: 0em;
      }

      .cls-2 {
        letter-spacing: 0em;
      }

      .cls-3 {
        fill: #7b61ff;
      }

      .cls-4 {
        fill: #1a1f3c;
        font-family: Quicksand-Regular, Quicksand;
        font-size: 284.06px;
      }
    </style>
  </defs>
  <text class="cls-4" transform="translate(590.87 634.22) scale(.99) skewX(-9.62)"><tspan x="0" y="0">Empat</tspan><tspan class="cls-1" x="858.7" y="0">h</tspan><tspan class="cls-2" x="1018.62" y="0">y</tspan></text>
  <path class="cls-3" d="M368.92,633.12c38.69,20.22,71.48,7.25,74.3,12.59.4.76.37,2.65-.23,3.37-10.62,12.72-29.27,24.79-44.54,32.14-30.61,14.74-63.97,21.35-98.41,20.71-31.18-.58-61.15-7.05-88.7-20.59-22.31-10.97-41.86-25.7-57.23-44.54-24.59-30.13-33.81-68.7-26.01-106.03,5.12-24.53,16.12-46.94,32.04-66.92,42.16-52.9,111.77-83.68,181.38-85.7,43.73-1.27,87.99,8.47,123.5,32.73,39.3,26.85,62.24,69.64,51.44,115.8-11.23,48-58.24,77.72-106.99,87.12-17.94,3.46-35.58,3.91-53.79,3.46-1.02-.03-2.38.32-2.7.92-2.18,3.98,12.12,12.96,15.94,14.96ZM296.13,593.99c-.69-2.76-1.26-7.32.64-9.23,2.16-2.16,5.52-.04,7.98.63,45.42,12.35,98.1,5.27,136.39-21.52,12.05-8.43,22.14-18.13,29.71-30.4,13.1-21.22,15.69-46.43,6.14-69.46-13.66-32.94-47.68-52.38-83.36-59.6-60.74-12.28-126.28,5.09-172.92,43.34-22.9,18.77-41.59,44.9-49.03,72.73-6.29,23.53-5.38,47.67,4.04,70.07,14.84,35.29,45.32,60.68,82.81,73.5,30.02,10.26,61.8,12.15,92.91,5.49,4.23-.91,27.47-6.31,27.32-9.65-.02-.56-1.16-1.74-1.74-1.87-14.43-3.4-28.18-8.41-40.88-15.86-18.89-11.09-34.85-27.3-40.03-48.17Z"/>
</svg>